<svg width="24" height="27" viewBox="0 0 24 27" fill="none" xmlns="http://www.w3.org/2000/svg">
<g clip-path="url(#clip0_464_1515)">
<mask id="mask0_464_1515" style="mask-type:luminance" maskUnits="userSpaceOnUse" x="0" y="0" width="24" height="27">
<path d="M23.625 0H0V27H23.625V0Z" fill="white"/>
</mask>
<g mask="url(#mask0_464_1515)">
<path d="M11.8125 0C12.7459 0 13.5 0.754102 13.5 1.6875V2.53125H14.3438C15.2771 2.53125 16.0312 3.28535 16.0312 4.21875C16.0312 5.15215 15.2771 5.90625 14.3438 5.90625H13.5V8.4375H21.5156C22.6811 8.4375 23.625 9.38145 23.625 10.5469C23.625 10.8264 23.5723 11.1006 23.4615 11.359L19.4062 21.0938H4.21875L0.163477 11.359C0.0527344 11.1006 0 10.8264 0 10.5469C0 9.38145 0.943945 8.4375 2.10938 8.4375H10.125V5.90625H9.28125C8.34785 5.90625 7.59375 5.15215 7.59375 4.21875C7.59375 3.28535 8.34785 2.53125 9.28125 2.53125H10.125V1.6875C10.125 0.754102 10.8791 0 11.8125 0ZM2.03555 24.9645L4.21875 22.7812H19.4062L21.5895 24.9645C21.8109 25.1859 21.9375 25.4918 21.9375 25.8082C21.9375 26.4674 21.4049 27 20.7457 27H2.8793C2.22012 27 1.6875 26.4674 1.6875 25.8082C1.6875 25.4918 1.81406 25.1859 2.03555 24.9645Z" fill="#BE8C28"/>
</g>
</g>
<defs>
<clipPath id="clip0_464_1515">
<rect width="23.625" height="27" fill="white"/>
</clipPath>
</defs>
</svg>
