<svg width="320" height="512" viewBox="0 0 320 512" fill="none" xmlns="http://www.w3.org/2000/svg">
<g clip-path="url(#clip0_106_452)">
<path d="M128 0C110.3 0 96 14.3 96 32C96 48.1 107.9 61.4 123.4 63.7C78.4 106.8 8 190 8 288C8 335.4 38.8 360.3 64 372.7V400H256V372.7C281.2 360.2 312 335.3 312 288C312 250.7 301.8 215.6 286.7 183.9L187.3 283.3C181.1 289.5 170.9 289.5 164.7 283.3C158.5 277.1 158.5 266.9 164.7 260.7L270.8 154.6C247.6 116.5 219 85.1 196.6 63.7C212.1 61.4 224 48.1 224 32C224 14.3 209.7 0 192 0H128ZM48 432L6.6 473.4C2.4 477.6 0 483.4 0 489.4C0 501.9 10.1 512 22.6 512H297.4C309.9 512 320 501.9 320 489.4C320 483.4 317.6 477.6 313.4 473.4L272 432H48Z" fill="white"/>
</g>
<defs>
<clipPath id="clip0_106_452">
<rect width="320" height="512" fill="white"/>
</clipPath>
</defs>
</svg>
