<svg width="448" height="512" viewBox="0 0 448 512" fill="none" xmlns="http://www.w3.org/2000/svg">
<path d="M32 192V48C32 39.2 39.2 32 48 32H112C120.8 32 128 39.2 128 48V88C128 92.4 131.6 96 136 96H168C172.4 96 176 92.4 176 88V48C176 39.2 183.2 32 192 32H256C264.8 32 272 39.2 272 48V88C272 92.4 275.6 96 280 96H312C316.4 96 320 92.4 320 88V48C320 39.2 327.2 32 336 32H400C408.8 32 416 39.2 416 48V192C416 202.1 411.3 211.6 403.2 217.6L352 256L368 400H80L96 256L44.8 217.6C36.7 211.6 32 202.1 32 192ZM208 288H240C248.8 288 256 280.8 256 272V224C256 206.3 241.7 192 224 192C206.3 192 192 206.3 192 224V272C192 280.8 199.2 288 208 288ZM22.6 473.4L64 432H384L425.4 473.4C429.6 477.6 432 483.4 432 489.4C432 501.9 421.9 512 409.4 512H38.6C26.1 512 16 501.9 16 489.4C16 483.4 18.4 477.6 22.6 473.4Z" fill="white"/>
</svg>
