<svg width="448" height="512" viewBox="0 0 448 512" fill="none" xmlns="http://www.w3.org/2000/svg">
<path d="M96 48L82.7 61.3C70.7 73.3 64 89.5 64 106.5V238.9C64 249.6 69.3 259.6 78.2 265.5L88.8 272.5C103.1 282.1 121.5 283.2 136.9 275.5L140.1 273.9C142.7 272.6 145.1 271.1 147.4 269.4L196.8 232.4C203.4 227.4 212.5 227.4 219.1 232.4C229.3 240.1 229 255.5 218.4 262.7L90.4 350C73.9 361.3 64 380 64 400H384L412.9 241C415 229.7 416 218.2 416 206.7V192C416 86 330 0 224 0H83.8C72.9 0 64 8.9 64 19.8C64 27.3 68.2 34.1 74.9 37.5L96 48ZM120 116C120 110.696 122.107 105.609 125.858 101.858C129.609 98.1071 134.696 96 140 96C145.304 96 150.391 98.1071 154.142 101.858C157.893 105.609 160 110.696 160 116C160 121.304 157.893 126.391 154.142 130.142C150.391 133.893 145.304 136 140 136C134.696 136 129.609 133.893 125.858 130.142C122.107 126.391 120 121.304 120 116ZM22.6 473.4C18.4 477.6 16 483.4 16 489.4C16 501.9 26.1 512 38.6 512H409.4C421.9 512 432 501.9 432 489.4C432 483.4 429.6 477.6 425.4 473.4L384 432H64L22.6 473.4Z" fill="white"/>
</svg>
