<svg width="512" height="512" viewBox="0 0 512 512" fill="none" xmlns="http://www.w3.org/2000/svg">
<path d="M256 0C270.852 0 285.096 5.89998 295.598 16.402C306.1 26.9041 312 41.1479 312 56C312 70.8521 306.1 85.0959 295.598 95.598C285.096 106.1 270.852 112 256 112C241.148 112 226.904 106.1 216.402 95.598C205.9 85.0959 200 70.8521 200 56C200 41.1479 205.9 26.9041 216.402 16.402C226.904 5.89998 241.148 0 256 0ZM134.1 143.8C137.4 130.8 149.1 120 164.3 120C176.6 120 186.9 127.2 192 137C204 160.2 228.2 176 256 176C283.8 176 308 160.2 320 137C325.1 127.2 335.4 120 347.7 120C363 120 374.7 130.8 377.9 143.8C384.9 171.6 410.1 192.1 440 192.1C450.8 192.1 461 189.4 469.8 184.7C478.2 180.3 488.7 180.2 497.4 185.6C510.4 193.6 514.5 210.6 506.6 223.6L399.7 400H384H343.6H168.4H128H112.3L5.40001 223.6C-2.49999 210.6 1.60001 193.6 14.6 185.6C23.3 180.3 33.8 180.3 42.2 184.7C51.1 189.4 61.2 192.1 72 192.1C101.9 192.1 127.1 171.6 134.1 143.8ZM112 432H400L441.4 473.4C445.6 477.6 448 483.4 448 489.4C448 501.9 437.9 512 425.4 512H86.6C74.1 512 64 501.9 64 489.4C64 483.4 66.4 477.6 70.6 473.4L112 432Z" fill="white"/>
</svg>
