<svg width="320" height="512" viewBox="0 0 320 512" fill="none" xmlns="http://www.w3.org/2000/svg">
<path d="M215.5 224C244.7 205.6 264 173.1 264 136C264 78.6 217.4 32 160 32C102.6 32 56 78.6 56 136C56 173.1 75.4 205.6 104.5 224H96C78.3 224 64 238.3 64 256C64 272.5 76.5 286 92.5 287.8L80 400H240L227.5 287.8C243.5 286 256 272.5 256 256C256 238.3 241.7 224 224 224H215.5ZM22.6 473.4C18.4 477.6 16 483.4 16 489.4C16 501.9 26.1 512 38.6 512H281.4C293.9 512 304 501.9 304 489.4C304 483.4 301.6 477.6 297.4 473.4L256 432H64L22.6 473.4Z" fill="white"/>
</svg>
