<svg width="448" height="512" viewBox="0 0 448 512" fill="none" xmlns="http://www.w3.org/2000/svg">
<g clip-path="url(#clip0_106_454)">
<path d="M224 0C241.7 0 256 14.3 256 32V48H272C289.7 48 304 62.3 304 80C304 97.7 289.7 112 272 112H256V160H408C430.1 160 448 177.9 448 200C448 205.3 447 210.5 444.9 215.4L368 400H80L3.1 215.4C1 210.5 0 205.3 0 200C0 177.9 17.9 160 40 160H192V112H176C158.3 112 144 97.7 144 80C144 62.3 158.3 48 176 48H192V32C192 14.3 206.3 0 224 0ZM38.6 473.4L80 432H368L409.4 473.4C413.6 477.6 416 483.4 416 489.4C416 501.9 405.9 512 393.4 512H54.6C42.1 512 32 501.9 32 489.4C32 483.4 34.4 477.6 38.6 473.4Z" fill="white"/>
</g>
<defs>
<clipPath id="clip0_106_454">
<rect width="448" height="512" fill="white"/>
</clipPath>
</defs>
</svg>
